<?xml version="1.0" encoding="UTF-8"?>
<svg id="Layer_2" data-name="Layer 2" xmlns="http://www.w3.org/2000/svg" xmlns:xlink="http://www.w3.org/1999/xlink" viewBox="0 0 552.3 771.07">
  <defs>
    <style>
      .cls-1, .cls-2, .cls-3 {
        fill: none;
      }

      .cls-4 {
        clip-path: url(#clippath-4);
      }

      .cls-5 {
        clip-path: url(#clippath-2);
      }

      .cls-6 {
        clip-path: url(#clippath-7);
      }

      .cls-7 {
        clip-path: url(#clippath-6);
      }

      .cls-8 {
        clip-path: url(#clippath-5);
      }

      .cls-9 {
        fill: #fff;
      }

      .cls-10 {
        stroke: #fff;
        stroke-width: 3.56px;
      }

      .cls-10, .cls-2, .cls-3 {
        stroke-miterlimit: 10;
      }

      .cls-11 {
        clip-path: url(#clippath);
      }

      .cls-2 {
        stroke-width: 2.62px;
      }

      .cls-2, .cls-3 {
        stroke: #000;
      }

      .cls-3 {
        stroke-width: 2.54px;
      }
    </style>
    <clipPath id="clippath">
      <path class="cls-1" d="M404.31,491.12h-250.43c-11.17,0-19.88-9.69-18.7-20.8l41.93-393.46c1.02-9.56,9.09-16.81,18.7-16.81h162.66c9.54,0,17.58,7.15,18.68,16.63l45.84,393.46c1.3,11.17-7.43,20.98-18.68,20.98Z"/>
    </clipPath>
    <clipPath id="clippath-2">
      <path class="cls-1" d="M132.97,60.05h308.72c0,143.69,0,287.38,0,431.07-102.91-.42-205.81.42-308.72,0,0-143.69,0-287.38,0-431.07Z"/>
    </clipPath>
    <clipPath id="clippath-4">
      <path class="cls-1" d="M405.08,491.12h-251.96c-10.77,0-19.16-9.33-18.02-20.04l42.07-394.82c.98-9.21,8.75-16.2,18.02-16.2h163.89c9.2,0,16.94,6.89,18,16.02l46,394.82c1.25,10.77-7.16,20.22-18,20.22Z"/>
    </clipPath>
    <clipPath id="clippath-5">
      <rect class="cls-1" x="94.88" y="9.93" width="368.56" height="543.39"/>
    </clipPath>
    <clipPath id="clippath-6">
      <path class="cls-1" d="M405.08,491.12h-251.96c-10.77,0-19.16-9.33-18.02-20.04l42.07-394.82c.98-9.21,8.75-16.2,18.02-16.2h163.89c9.2,0,16.94,6.89,18,16.02l46,394.82c1.25,10.77-7.16,20.22-18,20.22Z"/>
    </clipPath>
    <clipPath id="clippath-7">
      <rect class="cls-1" x="94.88" y="9.93" width="368.56" height="543.39"/>
    </clipPath>
  </defs>
  <g id="Layer_1-2" data-name="Layer 1">
    <g>
      <g>
        <path d="M77.32,646.05c31.41,1.59,75.56,3.77,75.48,32,0,32.17-36.86,39.79-76.4,39.79-39.46-.08-72.21-4.86-76.4-39.79h45.99c5.03,8.71,16.67,10.97,30.41,10.97s30.41-2.26,30.41-10.97c0-4.94-13.65-5.7-31.33-6.53C44.06,669.93-.08,667.75,0,639.6,0,607.44,36.86,599.73,76.4,599.73c39.46.25,72.21,4.69,76.4,39.88h-45.99c-5.03-8.88-16.67-10.97-30.41-10.97s-30.41,2.01-30.41,10.97c0,4.94,13.65,5.61,31.33,6.45Z"/>
        <path d="M164.52,602.66h131.77v28.82h-87.88v14.41h87.88v26.05h-87.88v14.41h87.88v28.9h-131.77v-112.59Z"/>
        <path d="M502.87,602.66h49.42l-49.42,112.59h-52.19l-24.71-56.29-24.71,56.29h-52.19l-49.42-112.59h49.42l26.05,71.29,26.14-71.29h49.42l26.05,71.29,26.14-71.29Z"/>
      </g>
      <g>
        <path d="M64.4,752.21c-1.06,14.52-13.78,18.87-29.26,18.87-16.12-.03-29.42-4.7-29.36-20.98v-3.13c-.06-16.25,13.24-20.92,29.36-20.98,15.48.03,28.21,4.38,29.26,18.87h-17.17c-1.57-4.22-6.33-5.21-12.09-5.21-6.84.1-12.67,1.31-12.57,8.38v1.06c-.1,7,5.72,8.28,12.57,8.38,5.76,0,10.55-1.02,12.09-5.24h17.17Z"/>
        <path d="M127.2,746.96v3.13c.06,16.25-13.18,20.95-29.33,20.98-16.18-.03-29.42-4.73-29.36-20.98v-3.13c-.06-16.28,13.18-20.95,29.36-20.98,16.18,0,29.33,4.73,29.33,20.98ZM110.44,747.98c.1-7-5.72-8.28-12.57-8.38-6.88.1-12.7,1.38-12.6,8.38v1.06c-.1,7.04,5.72,8.32,12.6,8.41,6.84-.1,12.67-1.38,12.57-8.41v-1.06Z"/>
        <path d="M173.56,727.07c8.86-.1,16.38,7.36,16.25,16.25,0,3.23-.86,6.17-2.59,8.79-1.7,2.59-3.97,4.57-6.78,5.88l9.37,12.06h-17.85l-8.09-10.49h-14.97v10.49h-16.76v-42.98h41.42ZM148.9,739.64v7.32h20.44c1.02,0,1.89-.35,2.59-1.05.74-.74,1.09-1.6,1.09-2.59,0-2.05-1.63-3.68-3.68-3.68h-20.44Z"/>
        <path d="M236.4,727.1c8.86-.1,16.38,7.36,16.25,16.25.13,8.86-7.39,16.38-16.25,16.25h-24.66v10.49h-16.76v-42.98h41.42ZM232.21,746.99c.99,0,1.85-.35,2.56-1.06.74-.74,1.09-1.6,1.09-2.59s-.35-1.89-1.09-2.59c-.7-.74-1.57-1.09-2.56-1.09h-20.47v7.32h20.47Z"/>
        <path d="M315.25,746.96v3.13c.06,16.25-13.18,20.95-29.33,20.98-16.18-.03-29.42-4.73-29.36-20.98v-3.13c-.06-16.28,13.18-20.95,29.36-20.98,16.18,0,29.33,4.73,29.33,20.98ZM298.49,747.98c.1-7-5.72-8.28-12.57-8.38-6.88.1-12.7,1.38-12.6,8.38v1.06c-.1,7.04,5.72,8.32,12.6,8.41,6.84-.1,12.67-1.38,12.57-8.41v-1.06Z"/>
        <path d="M361.61,727.07c8.86-.1,16.38,7.36,16.25,16.25,0,3.23-.86,6.17-2.59,8.79-1.7,2.59-3.97,4.57-6.78,5.88l9.37,12.06h-17.85l-8.09-10.49h-14.97v10.49h-16.76v-42.98h41.42ZM336.95,739.64v7.32h20.44c1.02,0,1.89-.35,2.59-1.05.74-.74,1.09-1.6,1.09-2.59,0-2.05-1.63-3.68-3.68-3.68h-20.44Z"/>
        <path d="M402.19,727.1h19.92l23.06,42.98h-18.87l-3.39-7.36h-21.52l-3.39,7.36h-18.87l23.06-42.98ZM406.25,752.24h11.8l-5.88-12.7-5.92,12.7Z"/>
        <path d="M453.95,770.08v-29.36h-19.92v-13.62h56.61v13.62h-19.93v29.36h-16.76Z"/>
        <path d="M496.22,727.1h50.31v11h-33.55v5.5h33.55v9.95h-33.55v5.5h33.55v11.03h-50.31v-42.98Z"/>
      </g>
      <g>
        <g class="cls-11">
          <g class="cls-5">
            <g>
              <path d="M425.44,81.12c-97.15-7.96-194.31,12.86-291.46,1.73v-21.78c97.15.52,194.31-.45,291.46-.08,0,6.68,0,13.39,0,20.13Z"/>
              <path d="M425.44,106.69c-97.15-16.37-194.31,26.45-291.46,3.55v-21.76c97.15,13.7,194.31-11.92,291.46-2.12,0,6.75,0,13.53,0,20.34Z"/>
              <path d="M425.44,132.53c-97.15-23.5-194.31,37.97-291.46,5.1v-21.75c97.15,25.09,194.31-21.83,291.46-3.89,0,6.82,0,13.67,0,20.54Z"/>
              <path d="M425.44,158.62c-97.15-29.35-194.31,47.43-291.46,6.37v-21.73c97.15,34.7,194.31-30.19,291.46-5.38,0,6.89,0,13.8,0,20.75Z"/>
              <path d="M425.44,184.97c-97.15-33.93-194.31,54.82-291.46,7.36v-21.72c97.15,42.52,194.31-36.99,291.46-6.59,0,6.96,0,13.94,0,20.95Z"/>
              <path d="M425.44,211.58c-97.15-37.23-194.31,60.15-291.46,8.08v-21.7c97.15,48.56,194.31-42.24,291.46-7.53,0,7.03,0,14.08,0,21.16Z"/>
              <path d="M425.44,238.44c-97.15-39.25-194.31,63.42-291.46,8.51v-21.69c97.15,52.81,194.31-45.94,291.46-8.19,0,7.09,0,14.21,0,21.36Z"/>
              <path d="M425.44,265.57c-97.15-40-194.31,64.63-291.46,8.68v-21.67c97.15,55.27,194.31-48.08,291.46-8.57,0,7.16,0,14.35,0,21.57Z"/>
              <path d="M425.44,292.95c-97.15-39.47-194.31,63.77-291.46,8.56v-21.66c97.15,55.95,194.31-48.67,291.46-8.68,0,7.23,0,14.49,0,21.77Z"/>
              <path d="M425.44,320.59c-97.15-37.66-194.31,60.85-291.46,8.17v-21.64c97.15,54.84,194.31-47.7,291.46-8.5,0,7.3,0,14.62,0,21.98Z"/>
              <path d="M425.44,348.49c-97.15-34.57-194.31,55.87-291.46,7.5v-21.63c97.15,51.94,194.31-45.18,291.46-8.05,0,7.37,0,14.76,0,22.18Z"/>
              <path d="M425.44,376.65c-97.15-30.21-194.31,48.82-291.46,6.55v-21.61c97.15,47.26,194.31-41.11,291.46-7.33,0,7.44,0,14.9,0,22.39Z"/>
              <path d="M425.44,405.07c-97.15-24.57-194.31,39.71-291.46,5.33v-21.6c97.15,40.79,194.31-35.48,291.46-6.33,0,7.5,0,15.03,0,22.59Z"/>
              <path d="M425.44,433.74c-97.15-17.66-194.31,28.54-291.46,3.83v-21.58c97.15,32.54,194.31-28.3,291.46-5.05,0,7.57,0,15.17,0,22.8Z"/>
              <path d="M425.44,462.67c-97.15-9.47-194.31,15.3-291.46,2.05v-21.57c97.15,22.49,194.31-19.57,291.46-3.49,0,7.64,0,15.31,0,23Z"/>
              <path d="M425.44,491.86H133.97v-21.55c97.15,10.67,194.31-9.28,291.46-1.65,0,7.71,0,15.44,0,23.21Z"/>
            </g>
          </g>
        </g>
        <g class="cls-4">
          <g class="cls-8">
            <g>
              <path class="cls-9" d="M96.86,223.25c120.5-87.28,246.06-145.88,366.61-175.81.78-12.5,1.57-25.01,2.35-37.51-121.5,30.33-248.17,89.83-369.66,178.49.24,11.61.47,23.21.71,34.82Z"/>
              <path class="cls-3" d="M96.86,223.25c120.5-87.28,246.06-145.88,366.61-175.81.78-12.5,1.57-25.01,2.35-37.51-121.5,30.33-248.17,89.83-369.66,178.49.24,11.61.47,23.21.71,34.82Z"/>
            </g>
            <g>
              <path class="cls-9" d="M96.86,266.93c120.5-87.28,246.06-145.88,366.61-175.81.78-12.5,1.57-25.01,2.35-37.51-121.5,30.33-248.17,89.83-369.66,178.49.24,11.61.47,23.21.71,34.82Z"/>
              <path class="cls-3" d="M96.86,266.93c120.5-87.28,246.06-145.88,366.61-175.81.78-12.5,1.57-25.01,2.35-37.51-121.5,30.33-248.17,89.83-369.66,178.49.24,11.61.47,23.21.71,34.82Z"/>
            </g>
            <g>
              <path class="cls-9" d="M96.86,312.57c120.5-87.28,246.06-145.88,366.61-175.81.78-12.5,1.57-25.01,2.35-37.51-121.5,30.33-248.17,89.83-369.66,178.49.24,11.61.47,23.21.71,34.82Z"/>
              <path class="cls-3" d="M96.86,312.57c120.5-87.28,246.06-145.88,366.61-175.81.78-12.5,1.57-25.01,2.35-37.51-121.5,30.33-248.17,89.83-369.66,178.49.24,11.61.47,23.21.71,34.82Z"/>
            </g>
            <g>
              <path class="cls-9" d="M96.86,458.88c120.5-87.28,246.06-145.89,366.61-175.81.78-12.5,1.57-25.01,2.35-37.51-121.5,30.33-248.17,89.83-369.66,178.49.24,11.61.47,23.21.71,34.82Z"/>
              <path class="cls-3" d="M96.86,458.88c120.5-87.28,246.06-145.89,366.61-175.81.78-12.5,1.57-25.01,2.35-37.51-121.5,30.33-248.17,89.83-369.66,178.49.24,11.61.47,23.21.71,34.82Z"/>
            </g>
            <g>
              <path class="cls-9" d="M96.86,502.56c120.5-87.28,246.06-145.88,366.61-175.81.78-12.5,1.57-25.01,2.35-37.51-121.5,30.33-248.17,89.83-369.66,178.49.24,11.61.47,23.21.71,34.82Z"/>
              <path class="cls-3" d="M96.86,502.56c120.5-87.28,246.06-145.88,366.61-175.81.78-12.5,1.57-25.01,2.35-37.51-121.5,30.33-248.17,89.83-369.66,178.49.24,11.61.47,23.21.71,34.82Z"/>
            </g>
            <g>
              <path class="cls-9" d="M79.27,558.95c127.39-92.41,260.17-154.5,387.66-186.27,1.1-12.58,2.2-25.17,3.3-37.75-128.48,32.04-262.44,94.93-390.92,188.66,0,11.79-.02,23.57-.03,35.36Z"/>
              <path class="cls-2" d="M79.27,558.95c127.39-92.41,260.17-154.5,387.66-186.27,1.1-12.58,2.2-25.17,3.3-37.75-128.48,32.04-262.44,94.93-390.92,188.66,0,11.79-.02,23.57-.03,35.36Z"/>
            </g>
            <g>
              <path class="cls-9" d="M96.86,205.18c120.5,87.28,246.06,145.88,366.61,175.81.78,12.5,1.57,25.01,2.35,37.51-121.5-30.33-248.17-89.83-369.66-178.49.24-11.61.47-23.21.71-34.82Z"/>
              <path class="cls-3" d="M96.86,205.18c120.5,87.28,246.06,145.88,366.61,175.81.78,12.5,1.57,25.01,2.35,37.51-121.5-30.33-248.17-89.83-369.66-178.49.24-11.61.47-23.21.71-34.82Z"/>
            </g>
            <g>
              <path class="cls-9" d="M96.86,161.5c120.5,87.28,246.06,145.88,366.61,175.81.78,12.5,1.57,25.01,2.35,37.51-121.5-30.33-248.17-89.83-369.66-178.49.24-11.61.47-23.21.71-34.82Z"/>
              <path class="cls-3" d="M96.86,161.5c120.5,87.28,246.06,145.88,366.61,175.81.78,12.5,1.57,25.01,2.35,37.51-121.5-30.33-248.17-89.83-369.66-178.49.24-11.61.47-23.21.71-34.82Z"/>
            </g>
            <g>
              <path class="cls-9" d="M96.86,115.86c120.5,87.28,246.06,145.88,366.61,175.81.78,12.5,1.57,25.01,2.35,37.51-121.5-30.33-248.17-89.83-369.66-178.49.24-11.61.47-23.21.71-34.82Z"/>
              <path class="cls-3" d="M96.86,115.86c120.5,87.28,246.06,145.88,366.61,175.81.78,12.5,1.57,25.01,2.35,37.51-121.5-30.33-248.17-89.83-369.66-178.49.24-11.61.47-23.21.71-34.82Z"/>
            </g>
          </g>
        </g>
        <g>
          <path class="cls-10" d="M286.21,464.72L455.99,112.52c10.16-21.07-.11-46.31-22.1-54.3h0c-21.99-7.99-46.07,4.77-51.8,27.45l-95.87,379.05Z"/>
          <path class="cls-9" d="M429.11,77.29c14.1,6.32,13.83,20.59,8.22,36.04-5.87,16.07-15.36,27.65-31.57,21.69l-3.13-1.14c-16.23-5.83-16.07-20.79-10.29-36.9,5.64-15.43,14.6-26.56,29.43-22.36l-6.22,17.14c-4.78.03-7.5,4.43-9.58,10.17-2.39,6.86-3.28,13.11,3.8,15.58l1.05.38c6.95,2.63,10.34-2.71,12.92-9.5,2.09-5.74,2.8-10.9-.85-13.96l6.22-17.14Z"/>
        </g>
        <rect x="199.79" width="149.26" height="47.11" rx="8.83" ry="8.83"/>
        <rect x="199.79" y="501.36" width="149.26" height="47.11" rx="8.83" ry="8.83"/>
        <g class="cls-7">
          <g class="cls-6">
            <g>
              <path class="cls-9" d="M96.86,502.56c120.5-87.28,246.06-145.88,366.61-175.81.78-12.5,1.57-25.01,2.35-37.51-121.5,30.33-248.17,89.83-369.66,178.49.24,11.61.47,23.21.71,34.82Z"/>
              <path class="cls-3" d="M96.86,502.56c120.5-87.28,246.06-145.88,366.61-175.81.78-12.5,1.57-25.01,2.35-37.51-121.5,30.33-248.17,89.83-369.66,178.49.24,11.61.47,23.21.71,34.82Z"/>
            </g>
            <g>
              <path class="cls-9" d="M79.27,558.95c127.39-92.41,260.17-154.5,387.66-186.27,1.1-12.58,2.2-25.17,3.3-37.75-128.48,32.04-262.44,94.93-390.92,188.66,0,11.79-.02,23.57-.03,35.36Z"/>
              <path class="cls-2" d="M79.27,558.95c127.39-92.41,260.17-154.5,387.66-186.27,1.1-12.58,2.2-25.17,3.3-37.75-128.48,32.04-262.44,94.93-390.92,188.66,0,11.79-.02,23.57-.03,35.36Z"/>
            </g>
            <g>
              <path class="cls-9" d="M96.86,205.18c120.5,87.28,246.06,145.88,366.61,175.81.78,12.5,1.57,25.01,2.35,37.51-121.5-30.33-248.17-89.83-369.66-178.49.24-11.61.47-23.21.71-34.82Z"/>
              <path class="cls-3" d="M96.86,205.18c120.5,87.28,246.06,145.88,366.61,175.81.78,12.5,1.57,25.01,2.35,37.51-121.5-30.33-248.17-89.83-369.66-178.49.24-11.61.47-23.21.71-34.82Z"/>
            </g>
            <g>
              <path class="cls-9" d="M96.86,161.5c120.5,87.28,246.06,145.88,366.61,175.81.78,12.5,1.57,25.01,2.35,37.51-121.5-30.33-248.17-89.83-369.66-178.49.24-11.61.47-23.21.71-34.82Z"/>
              <path class="cls-3" d="M96.86,161.5c120.5,87.28,246.06,145.88,366.61,175.81.78,12.5,1.57,25.01,2.35,37.51-121.5-30.33-248.17-89.83-369.66-178.49.24-11.61.47-23.21.71-34.82Z"/>
            </g>
            <g>
              <path class="cls-9" d="M96.86,115.86c120.5,87.28,246.06,145.88,366.61,175.81.78,12.5,1.57,25.01,2.35,37.51-121.5-30.33-248.17-89.83-369.66-178.49.24-11.61.47-23.21.71-34.82Z"/>
              <path class="cls-3" d="M96.86,115.86c120.5,87.28,246.06,145.88,366.61,175.81.78,12.5,1.57,25.01,2.35,37.51-121.5-30.33-248.17-89.83-369.66-178.49.24-11.61.47-23.21.71-34.82Z"/>
            </g>
          </g>
        </g>
      </g>
    </g>
  </g>
</svg>